<svg xmlns:dc="http://purl.org/dc/elements/1.1/" xmlns:cc="http://creativecommons.org/ns#" xmlns:rdf="http://www.w3.org/1999/02/22-rdf-syntax-ns#" xmlns:svg="http://www.w3.org/2000/svg" xmlns="http://www.w3.org/2000/svg" xmlns:xlink="http://www.w3.org/1999/xlink" id="svg541708" viewBox="0 0 1024 768" height="768px" width="1024px" version="1.1">
  <metadata id="metadata541714">
    <rdf:rdf>
      <cc:work rdf:about="">
        <dc:format>image/svg+xml</dc:format>
        <dc:type rdf:resource="http://purl.org/dc/dcmitype/StillImage"></dc:type>
      </cc:work>
    </rdf:rdf>
  </metadata>
  <defs id="defs541712"></defs>
  <linearGradient spreadMethod="pad" y2="30%" x2="-10%" y1="120%" x1="30%" id="3d_gradient2-logo-6c9ed809-ba5b-4df5-8dc2-6dd0462431f0">
    <stop id="stop541689" stop-opacity="1" stop-color="#ffffff" offset="0%"></stop>
    <stop id="stop541691" stop-opacity="1" stop-color="#000000" offset="100%"></stop>
  </linearGradient>
  <linearGradient gradientTransform="rotate(-30)" spreadMethod="pad" y2="30%" x2="-10%" y1="120%" x1="30%" id="3d_gradient3-logo-6c9ed809-ba5b-4df5-8dc2-6dd0462431f0">
    <stop id="stop541694" stop-opacity="1" stop-color="#ffffff" offset="0%"></stop>
    <stop id="stop541696" stop-opacity="1" stop-color="#cccccc" offset="50%"></stop>
    <stop id="stop541698" stop-opacity="1" stop-color="#000000" offset="100%"></stop>
  </linearGradient>
  <g id="logo-group">
    <image xlink:href="" id="container" x="272" y="144" width="480" height="480" style="display: none;" transform="translate(0 0)"></image>
    <g id="logo-center" transform="translate(1.1368683772161603e-13 0)">
      <image xlink:href="" id="icon_container" style="display: none;"></image>
      <g id="slogan" style="font-style:normal;font-weight:700;font-size:32px;line-height:1;font-family:'Brandmark1 Bold';font-variant-ligatures:none;text-align:center;text-anchor:middle" transform="translate(0 0)"></g>
      <g id="title" style="font-style:normal;font-weight:normal;font-size:72px;line-height:1;font-family:'Brandmark Sans 18 Color Shadow Alt';font-variant-ligatures:normal;text-align:center;text-anchor:middle" transform="translate(0 0)">
        <g id="path541717" aria-label="S" transform="translate(0 310.852) translate(371.5168792999999 44.376799999999996) scale(1.11) translate(-385.62538 51.12)"> <path class="c2" d="M112.26355,109.75372v5.95654c0,1.61127-0.31909,3.14557-0.88379,4.55493h-11.37964 c2.12866,0,3.85425-1.72552,3.85425-3.85419v-4.55493l0,0L87.73645,94.33685l0,0v-5.95648 c0-1.61108,0.31909-3.14557,0.88379-4.55499h11.37964c-2.12866,0-3.85425,1.72559-3.85425,3.85425v4.55499l16.11768,17.5191 H112.26355z" transform="translate(297.88893 -127.23697)" stroke-width="0" stroke-linejoin="miter" stroke-miterlimit="2" fill="#a0a0a0" stroke="#a0a0a0"></path> <linearGradient id="4886df6e-7e2c-4107-9ddf-aa06ae3eb441" gradientUnits="userSpaceOnUse" x1="87.73645" y1="102.04529" x2="112.26355" y2="102.04529"> <stop offset="0" style="stop-color:#000000;stop-opacity:0.4"></stop> <stop offset="1" style="stop-color:#000000;stop-opacity:0.4"></stop> </linearGradient> <path class="highlight" fill="url(#4886df6e-7e2c-4107-9ddf-aa06ae3eb441)" d="M112.26355,109.75372v5.95654c0,1.61127-0.31909,3.14557-0.88379,4.55493h-11.37964 c2.12866,0,3.85425-1.72552,3.85425-3.85419v-4.55493l0,0L87.73645,94.33685l0,0v-5.95648 c0-1.61108,0.31909-3.14557,0.88379-4.55499h11.37964c-2.12866,0-3.85425,1.72559-3.85425,3.85425v4.55499l16.11768,17.5191 H112.26355z" transform="translate(297.88893 -127.23697)" stroke-width="0" stroke-linejoin="miter" stroke-miterlimit="2" opacity="0.61"></path> <linearGradient id="464a9387-40f9-4bb2-8b66-7a3d987c9d8e" gradientUnits="userSpaceOnUse" x1="95.21261" y1="82.44295" x2="93.09523" y2="86.62362"> <stop offset="0" style="stop-color:#000000;stop-opacity:0.8"></stop> <stop offset="0.50469" style="stop-color:#000000;stop-opacity:0.60593"></stop> <stop offset="1" style="stop-color:#000000;stop-opacity:0"></stop> </linearGradient> <path class="highlight" fill="url(#464a9387-40f9-4bb2-8b66-7a3d987c9d8e)" d="M96.14571,87.67962c0-2.12864,1.72556-3.85421,3.85421-3.85421H88.62025 c-0.56467,1.4094-0.88374,2.94387-0.88374,4.55498l-0.00005,5.95647l8.40919-2.1023L96.14571,87.67962z" transform="translate(297.88893 -127.23697)" stroke-width="0" stroke-linejoin="miter" stroke-miterlimit="2" opacity="0.61"></path> <path class="c2" d="M112.26349,88.38056v5.12434l-8.40919-0.00017v-5.82512c0-2.12864-1.72574-3.85421-3.85439-3.85421 H88.62017c1.80923-4.51529,6.21793-7.70843,11.37975-7.70843h0.00018C106.77302,76.11698,112.26349,81.60763,112.26349,88.38056z M100.00009,120.26524c-2.12865,0-3.85422-1.72557-3.85422-3.85421v-5.82512h-8.40919v5.12435 c0,6.77293,5.49047,12.2634,12.2634,12.2634c5.16164,0,9.57034-3.19314,11.37957-7.70843H100.00009z" transform="translate(297.88893 -127.23697)" stroke-width="0" stroke-linejoin="miter" stroke-miterlimit="2" fill="#a0a0a0" stroke="#a0a0a0"></path> </g>
        <g id="path541719" aria-label="T" transform="translate(0 310.852) translate(400.8063049999999 45.175999999999995) scale(1.11) translate(-412.01225 50.4)"> <path class="c2" d="M95.88558,76.81775h8.40919v50.45515h-8.40919V76.81775z" transform="translate(325.13059 -127.21775)" stroke-width="0" stroke-linejoin="miter" stroke-miterlimit="2" fill="#a0a0a0" stroke="#a0a0a0"></path> <linearGradient id="b5e3f509-577d-489a-987f-9deb61c3c9c8" gradientUnits="userSpaceOnUse" x1="95.88558" y1="102.04533" x2="104.29477" y2="102.04533"> <stop offset="0" style="stop-color:#000000;stop-opacity:0.4"></stop> <stop offset="1" style="stop-color:#000000;stop-opacity:0.4"></stop> </linearGradient> <path class="highlight" fill="url(#b5e3f509-577d-489a-987f-9deb61c3c9c8)" d="M95.88558,76.81775h8.40919v50.45515h-8.40919V76.81775z" transform="translate(325.13059 -127.21775)" stroke-width="0" stroke-linejoin="miter" stroke-miterlimit="2" opacity="0.61"></path> <path class="c2" d="M113.11834,84.52618H86.88166v-7.70843h26.23668V84.52618z" transform="translate(325.13059 -127.21775)" stroke-width="0" stroke-linejoin="miter" stroke-miterlimit="2" fill="#a0a0a0" stroke="#a0a0a0"></path> <linearGradient id="7c5b3679-e792-4f67-bb59-afeaf2cc5520" gradientUnits="userSpaceOnUse" x1="104.15977" y1="82.90527" x2="101.83112" y2="87.7048"> <stop offset="0" style="stop-color:#000000;stop-opacity:0.8"></stop> <stop offset="0.48618" style="stop-color:#000000;stop-opacity:0.60593"></stop> <stop offset="1" style="stop-color:#000000;stop-opacity:0"></stop> </linearGradient> <rect x="95.88558" y="84.52622" class="highlight" fill="url(#7c5b3679-e792-4f67-bb59-afeaf2cc5520)" width="8.40919" height="13.53354" transform="translate(325.13059 -127.21775)" stroke-width="0" stroke-linejoin="miter" stroke-miterlimit="2" opacity="0.61"></rect> </g>
        <g id="path541721" aria-label="O" transform="translate(0 310.852) translate(432.88044319999995 44.376799999999996) scale(1.11) translate(-440.90787 51.12)"> <path class="c2" d="M100,120.26524H88.62025c-0.56458-1.4094-0.88366-2.94386-0.88366-4.55498V88.38039 c0-1.61111,0.31908-3.14558,0.88366-4.55498h11.37889c-2.12796,0.00051-3.85336,1.72591-3.85336,3.85421v28.73141 C96.14579,118.53967,97.87153,120.26524,100,120.26524z" transform="translate(353.17128 -127.23698)" stroke-width="0" stroke-linejoin="miter" stroke-miterlimit="2" fill="#a0a0a0" stroke="#a0a0a0"></path> <linearGradient id="787edbf9-0121-4059-bc6f-6b31a19fd3a3" gradientUnits="userSpaceOnUse" x1="87.7366" y1="102.04533" x2="100" y2="102.04533"> <stop offset="0" style="stop-color:#000000;stop-opacity:0.4"></stop> <stop offset="1" style="stop-color:#000000;stop-opacity:0.4"></stop> </linearGradient> <path class="highlight" fill="url(#787edbf9-0121-4059-bc6f-6b31a19fd3a3)" d="M100,120.26524H88.62025c-0.56458-1.4094-0.88366-2.94386-0.88366-4.55498V88.38039 c0-1.61111,0.31908-3.14558,0.88366-4.55498h11.37889c-2.12796,0.00051-3.85336,1.72591-3.85336,3.85421v28.73141 C96.14579,118.53967,97.87153,120.26524,100,120.26524z" transform="translate(353.17128 -127.23698)" stroke-width="0" stroke-linejoin="miter" stroke-miterlimit="2" opacity="0.61"></path> <path class="c2" d="M112.2634,88.38039v27.32987c0,6.77293-5.49048,12.2634-12.2634,12.2634 c-5.16164,0-9.57035-3.19314-11.37975-7.70843H100l0,0l0,0c2.12865,0,3.85421-1.72557,3.85421-3.85421V87.67962 c0-2.12864-1.72556-3.85421-3.85421-3.85421h-0.00085H88.62025c1.80939-4.51529,6.2181-7.70843,11.37975-7.70843 C106.77293,76.11698,112.2634,81.60746,112.2634,88.38039z" transform="translate(353.17128 -127.23698)" stroke-width="0" stroke-linejoin="miter" stroke-miterlimit="2" fill="#a0a0a0" stroke="#a0a0a0"></path> <linearGradient id="5bab60e7-fd7a-42f4-ace6-18980da023a6" gradientUnits="userSpaceOnUse" x1="102.43439" y1="84.74562" x2="99.86002" y2="89.82863"> <stop offset="0" style="stop-color:#000000;stop-opacity:0.8"></stop> <stop offset="0.50469" style="stop-color:#000000;stop-opacity:0.60593"></stop> <stop offset="1" style="stop-color:#000000;stop-opacity:0"></stop> </linearGradient> <path class="highlight" fill="url(#5bab60e7-fd7a-42f4-ace6-18980da023a6)" d="M87.7366,88.38039v27.32987c0,1.54131,0.29666,3.01025,0.81573,4.36901h10.26684 c-1.55054-0.49872-2.67338-1.95174-2.67338-3.66824V87.67962c0-2.12864,1.72556-3.85421,3.85421-3.85421H88.62034 C88.05567,85.23481,87.7366,86.76928,87.7366,88.38039z" transform="translate(353.17128 -127.23698)" stroke-width="0" stroke-linejoin="miter" stroke-miterlimit="2" opacity="0.61"></path> </g>
        <g id="path541723" aria-label="R" transform="translate(0 310.852) translate(466.84394569999995 45.175999999999995) scale(1.11) translate(-471.50562 50.4)"> <path class="c2" d="M87.73653,76.81775h8.40919v50.45515h-8.40919V76.81775z" transform="translate(383.769094 -127.21773)" stroke-width="0" stroke-linejoin="miter" stroke-miterlimit="2" fill="#a0a0a0" stroke="#a0a0a0"></path> <linearGradient id="ca5ab083-b5a5-4fc3-b359-99ec0657b0a5" gradientUnits="userSpaceOnUse" x1="87.73653" y1="102.04533" x2="96.14573" y2="102.04533"> <stop offset="0" style="stop-color:#000000;stop-opacity:0.4"></stop> <stop offset="1" style="stop-color:#000000;stop-opacity:0.4"></stop> </linearGradient> <path class="highlight" fill="url(#ca5ab083-b5a5-4fc3-b359-99ec0657b0a5)" d="M87.73653,76.81775h8.40919v50.45515h-8.40919V76.81775z" transform="translate(383.769094 -127.21773)" stroke-width="0" stroke-linejoin="miter" stroke-miterlimit="2" opacity="0.61"></path> <linearGradient id="2e7fa11d-48cf-4b63-928e-35950a4fbda0" gradientUnits="userSpaceOnUse" x1="96.01073" y1="82.90527" x2="93.68207" y2="87.7048"> <stop offset="0" style="stop-color:#000000;stop-opacity:0.8"></stop> <stop offset="0.48618" style="stop-color:#000000;stop-opacity:0.60593"></stop> <stop offset="1" style="stop-color:#000000;stop-opacity:0"></stop> </linearGradient> <rect x="87.73653" y="84.52622" class="highlight" fill="url(#2e7fa11d-48cf-4b63-928e-35950a4fbda0)" width="8.40919" height="13.53354" transform="translate(383.769094 -127.21773)" stroke-width="0" stroke-linejoin="miter" stroke-miterlimit="2" opacity="0.61"></rect> <linearGradient id="4b6f2a31-f3aa-4df3-b4ab-5fc5e6d2875e" gradientUnits="userSpaceOnUse" x1="96.01073" y1="107.91385" x2="93.68207" y2="112.71338"> <stop offset="0" style="stop-color:#000000;stop-opacity:0.8"></stop> <stop offset="0.48618" style="stop-color:#000000;stop-opacity:0.60593"></stop> <stop offset="1" style="stop-color:#000000;stop-opacity:0"></stop> </linearGradient> <rect x="87.73653" y="109.5348" class="highlight" fill="url(#4b6f2a31-f3aa-4df3-b4ab-5fc5e6d2875e)" width="8.40919" height="13.53354" transform="translate(383.769094 -127.21773)" stroke-width="0" stroke-linejoin="miter" stroke-miterlimit="2" opacity="0.61"></rect> <path class="c2" d="M106.76713,107.49475l5.49634,19.77814h-8.40918l-4.92944-17.7381H87.73661v-7.70844h12.26343 c2.12866,0,3.85425-1.72559,3.85425-3.85419v-9.59174c0-2.12866-1.72559-3.85425-3.85425-3.85425H87.73661v-7.70844h12.26343 c6.77271,0,12.26343,5.49054,12.26343,12.26343v8.19019C112.26347,101.54187,110.07792,105.29883,106.76713,107.49475z" transform="translate(383.769094 -127.21773)" stroke-width="0" stroke-linejoin="miter" stroke-miterlimit="2" fill="#a0a0a0" stroke="#a0a0a0"></path> </g>
        <g id="path541725" aria-label="Y" transform="translate(0 310.852) translate(495.0756856999999 45.175999999999995) scale(1.11) translate(-496.93962 50.4)"> <path class="c2" d="M95.7955,105.23727h8.40919v22.03562H95.7955V105.23727z" transform="translate(413.4655 -127.21775)" stroke-width="0" stroke-linejoin="miter" stroke-miterlimit="2" fill="#a0a0a0" stroke="#a0a0a0"></path> <linearGradient id="5c2226a0-fc99-4e52-ba39-7674d91ce98d" gradientUnits="userSpaceOnUse" x1="95.7955" y1="116.25508" x2="104.20469" y2="116.25508"> <stop offset="0" style="stop-color:#000000;stop-opacity:0.4"></stop> <stop offset="1" style="stop-color:#000000;stop-opacity:0.4"></stop> </linearGradient> <path class="highlight" fill="url(#5c2226a0-fc99-4e52-ba39-7674d91ce98d)" d="M95.7955,105.23727h8.40919v22.03562H95.7955V105.23727z" transform="translate(413.4655 -127.21775)" stroke-width="0" stroke-linejoin="miter" stroke-miterlimit="2" opacity="0.61"></path> <path class="c2" d="M116.52588,76.81775l-12.32129,28.41949h-8.40918L83.47412,76.81775h8.40918L100,95.53925l8.1167-18.7215 H116.52588z" transform="translate(413.4655 -127.21775)" stroke-width="0" stroke-linejoin="miter" stroke-miterlimit="2" fill="#a0a0a0" stroke="#a0a0a0"></path> <linearGradient id="12643b6f-7420-42f0-901b-00d344e4bb22" gradientUnits="userSpaceOnUse" x1="104.0697" y1="103.61633" x2="101.74104" y2="108.41586"> <stop offset="0" style="stop-color:#000000;stop-opacity:0.8"></stop> <stop offset="0.48618" style="stop-color:#000000;stop-opacity:0.60593"></stop> <stop offset="1" style="stop-color:#000000;stop-opacity:0"></stop> </linearGradient> <rect x="95.7955" y="105.23727" class="highlight" fill="url(#12643b6f-7420-42f0-901b-00d344e4bb22)" width="8.40919" height="13.53354" transform="translate(413.4655 -127.21775)" stroke-width="0" stroke-linejoin="miter" stroke-miterlimit="2" opacity="0.61"></rect> </g>
        <g id="path541727" aria-label="T" transform="translate(0 310.852) translate(530.9884924999999 45.175999999999995) scale(1.11) translate(-529.2935 50.4)"> <path class="c2" d="M95.88558,76.81775h8.40919v50.45515h-8.40919V76.81775z" transform="translate(442.41184 -127.21775)" stroke-width="0" stroke-linejoin="miter" stroke-miterlimit="2" fill="#a0a0a0" stroke="#a0a0a0"></path> <linearGradient id="171d2cb9-78fb-4d87-a986-069f98de3990" gradientUnits="userSpaceOnUse" x1="95.88558" y1="102.04533" x2="104.29477" y2="102.04533"> <stop offset="0" style="stop-color:#000000;stop-opacity:0.4"></stop> <stop offset="1" style="stop-color:#000000;stop-opacity:0.4"></stop> </linearGradient> <path class="highlight" fill="url(#171d2cb9-78fb-4d87-a986-069f98de3990)" d="M95.88558,76.81775h8.40919v50.45515h-8.40919V76.81775z" transform="translate(442.41184 -127.21775)" stroke-width="0" stroke-linejoin="miter" stroke-miterlimit="2" opacity="0.61"></path> <path class="c2" d="M113.11834,84.52618H86.88166v-7.70843h26.23668V84.52618z" transform="translate(442.41184 -127.21775)" stroke-width="0" stroke-linejoin="miter" stroke-miterlimit="2" fill="#a0a0a0" stroke="#a0a0a0"></path> <linearGradient id="1b112c77-c469-4d24-af4c-e3fd7184fca6" gradientUnits="userSpaceOnUse" x1="104.15977" y1="82.90527" x2="101.83112" y2="87.7048"> <stop offset="0" style="stop-color:#000000;stop-opacity:0.8"></stop> <stop offset="0.48618" style="stop-color:#000000;stop-opacity:0.60593"></stop> <stop offset="1" style="stop-color:#000000;stop-opacity:0"></stop> </linearGradient> <rect x="95.88558" y="84.52622" class="highlight" fill="url(#1b112c77-c469-4d24-af4c-e3fd7184fca6)" width="8.40919" height="13.53354" transform="translate(442.41184 -127.21775)" stroke-width="0" stroke-linejoin="miter" stroke-miterlimit="2" opacity="0.61"></rect> </g>
        <g id="path541729" aria-label="R" transform="translate(0 310.852) translate(563.6220706999999 45.175999999999995) scale(1.11) translate(-558.69312 50.4)"> <path class="c2" d="M87.73653,76.81775h8.40919v50.45515h-8.40919V76.81775z" transform="translate(470.956594 -127.21773)" stroke-width="0" stroke-linejoin="miter" stroke-miterlimit="2" fill="#a0a0a0" stroke="#a0a0a0"></path> <linearGradient id="664720e7-92dc-406c-9b74-8d83ba9bb84f" gradientUnits="userSpaceOnUse" x1="87.73653" y1="102.04533" x2="96.14573" y2="102.04533"> <stop offset="0" style="stop-color:#000000;stop-opacity:0.4"></stop> <stop offset="1" style="stop-color:#000000;stop-opacity:0.4"></stop> </linearGradient> <path class="highlight" fill="url(#664720e7-92dc-406c-9b74-8d83ba9bb84f)" d="M87.73653,76.81775h8.40919v50.45515h-8.40919V76.81775z" transform="translate(470.956594 -127.21773)" stroke-width="0" stroke-linejoin="miter" stroke-miterlimit="2" opacity="0.61"></path> <linearGradient id="b529ec6d-6acb-4605-b4c4-3293536e220c" gradientUnits="userSpaceOnUse" x1="96.01073" y1="82.90527" x2="93.68207" y2="87.7048"> <stop offset="0" style="stop-color:#000000;stop-opacity:0.8"></stop> <stop offset="0.48618" style="stop-color:#000000;stop-opacity:0.60593"></stop> <stop offset="1" style="stop-color:#000000;stop-opacity:0"></stop> </linearGradient> <rect x="87.73653" y="84.52622" class="highlight" fill="url(#b529ec6d-6acb-4605-b4c4-3293536e220c)" width="8.40919" height="13.53354" transform="translate(470.956594 -127.21773)" stroke-width="0" stroke-linejoin="miter" stroke-miterlimit="2" opacity="0.61"></rect> <linearGradient id="bc38450b-5619-48d5-bcb4-041f3b0cac70" gradientUnits="userSpaceOnUse" x1="96.01073" y1="107.91385" x2="93.68207" y2="112.71338"> <stop offset="0" style="stop-color:#000000;stop-opacity:0.8"></stop> <stop offset="0.48618" style="stop-color:#000000;stop-opacity:0.60593"></stop> <stop offset="1" style="stop-color:#000000;stop-opacity:0"></stop> </linearGradient> <rect x="87.73653" y="109.5348" class="highlight" fill="url(#bc38450b-5619-48d5-bcb4-041f3b0cac70)" width="8.40919" height="13.53354" transform="translate(470.956594 -127.21773)" stroke-width="0" stroke-linejoin="miter" stroke-miterlimit="2" opacity="0.61"></rect> <path class="c2" d="M106.76713,107.49475l5.49634,19.77814h-8.40918l-4.92944-17.7381H87.73661v-7.70844h12.26343 c2.12866,0,3.85425-1.72559,3.85425-3.85419v-9.59174c0-2.12866-1.72559-3.85425-3.85425-3.85425H87.73661v-7.70844h12.26343 c6.77271,0,12.26343,5.49054,12.26343,12.26343v8.19019C112.26347,101.54187,110.07792,105.29883,106.76713,107.49475z" transform="translate(470.956594 -127.21773)" stroke-width="0" stroke-linejoin="miter" stroke-miterlimit="2" fill="#a0a0a0" stroke="#a0a0a0"></path> </g>
        <g id="path541731" aria-label="E" transform="translate(0 310.852) translate(596.7139456999998 45.175999999999995) scale(1.11) translate(-588.50562 50.4)"> <path class="c2" d="M88.64759,76.81775h8.40919v50.45515h-8.40919V76.81775z" transform="translate(499.85803 -127.21775)" stroke-width="0" stroke-linejoin="miter" stroke-miterlimit="2" fill="#a0a0a0" stroke="#a0a0a0"></path> <linearGradient id="bcce1524-08e0-4cd3-aefb-e88aff9e15e9" gradientUnits="userSpaceOnUse" x1="88.64759" y1="102.04533" x2="97.05679" y2="102.04533"> <stop offset="0" style="stop-color:#000000;stop-opacity:0.4"></stop> <stop offset="1" style="stop-color:#000000;stop-opacity:0.4"></stop> </linearGradient> <path class="highlight" fill="url(#bcce1524-08e0-4cd3-aefb-e88aff9e15e9)" d="M88.64759,76.81775h8.40919v50.45515h-8.40919V76.81775z" transform="translate(499.85803 -127.21775)" stroke-width="0" stroke-linejoin="miter" stroke-miterlimit="2" opacity="0.61"></path> <path class="c2" d="M108.54935,106.03093H88.64759V98.3225h19.90176V106.03093z M111.35241,76.81779H88.64759v7.70843h22.70482 V76.81779z M111.35241,119.56447H88.64759v7.70843h22.70482V119.56447z" transform="translate(499.85803 -127.21775)" stroke-width="0" stroke-linejoin="miter" stroke-miterlimit="2" fill="#a0a0a0" stroke="#a0a0a0"></path> <linearGradient id="7b146e0f-9a23-4783-b41f-d3f0993c70ff" gradientUnits="userSpaceOnUse" x1="96.92179" y1="82.90527" x2="94.59312" y2="87.7048"> <stop offset="0" style="stop-color:#000000;stop-opacity:0.8"></stop> <stop offset="0.48618" style="stop-color:#000000;stop-opacity:0.60593"></stop> <stop offset="1" style="stop-color:#000000;stop-opacity:0"></stop> </linearGradient> <path class="highlight" fill="url(#7b146e0f-9a23-4783-b41f-d3f0993c70ff)" d="M97.05679,98.05977h-8.40919V84.52622h8.40919V98.05977z" transform="translate(499.85803 -127.21775)" stroke-width="0" stroke-linejoin="miter" stroke-miterlimit="2" opacity="0.61"></path> <linearGradient id="1cec497b-c0ae-4e0a-856e-e0f9b9724ebf" gradientUnits="userSpaceOnUse" x1="96.92179" y1="104.40998" x2="94.59312" y2="109.20951"> <stop offset="0" style="stop-color:#000000;stop-opacity:0.8"></stop> <stop offset="0.48618" style="stop-color:#000000;stop-opacity:0.60593"></stop> <stop offset="1" style="stop-color:#000000;stop-opacity:0"></stop> </linearGradient> <path class="highlight" fill="url(#1cec497b-c0ae-4e0a-856e-e0f9b9724ebf)" d="M97.05679,119.56447h-8.40919v-13.53354h8.40919V119.56447z" transform="translate(499.85803 -127.21775)" stroke-width="0" stroke-linejoin="miter" stroke-miterlimit="2" opacity="0.61"></path> </g>
        <g id="path541733" aria-label="E" transform="translate(0 310.852) translate(627.3083206999999 45.175999999999995) scale(1.11) translate(-616.06812 50.4)"> <path class="c2" d="M88.64759,76.81775h8.40919v50.45515h-8.40919V76.81775z" transform="translate(527.42053 -127.21775)" stroke-width="0" stroke-linejoin="miter" stroke-miterlimit="2" fill="#a0a0a0" stroke="#a0a0a0"></path> <linearGradient id="e46ea931-de22-4f64-a28b-1aff7b106528" gradientUnits="userSpaceOnUse" x1="88.64759" y1="102.04533" x2="97.05679" y2="102.04533"> <stop offset="0" style="stop-color:#000000;stop-opacity:0.4"></stop> <stop offset="1" style="stop-color:#000000;stop-opacity:0.4"></stop> </linearGradient> <path class="highlight" fill="url(#e46ea931-de22-4f64-a28b-1aff7b106528)" d="M88.64759,76.81775h8.40919v50.45515h-8.40919V76.81775z" transform="translate(527.42053 -127.21775)" stroke-width="0" stroke-linejoin="miter" stroke-miterlimit="2" opacity="0.61"></path> <path class="c2" d="M108.54935,106.03093H88.64759V98.3225h19.90176V106.03093z M111.35241,76.81779H88.64759v7.70843h22.70482 V76.81779z M111.35241,119.56447H88.64759v7.70843h22.70482V119.56447z" transform="translate(527.42053 -127.21775)" stroke-width="0" stroke-linejoin="miter" stroke-miterlimit="2" fill="#a0a0a0" stroke="#a0a0a0"></path> <linearGradient id="2c6c6580-fc92-4188-9b8b-8b4e3e6034c5" gradientUnits="userSpaceOnUse" x1="96.92179" y1="82.90527" x2="94.59312" y2="87.7048"> <stop offset="0" style="stop-color:#000000;stop-opacity:0.8"></stop> <stop offset="0.48618" style="stop-color:#000000;stop-opacity:0.60593"></stop> <stop offset="1" style="stop-color:#000000;stop-opacity:0"></stop> </linearGradient> <path class="highlight" fill="url(#2c6c6580-fc92-4188-9b8b-8b4e3e6034c5)" d="M97.05679,98.05977h-8.40919V84.52622h8.40919V98.05977z" transform="translate(527.42053 -127.21775)" stroke-width="0" stroke-linejoin="miter" stroke-miterlimit="2" opacity="0.61"></path> <linearGradient id="4d906698-cb1c-46e2-b453-3defc6a2adf9" gradientUnits="userSpaceOnUse" x1="96.92179" y1="104.40998" x2="94.59312" y2="109.20951"> <stop offset="0" style="stop-color:#000000;stop-opacity:0.8"></stop> <stop offset="0.48618" style="stop-color:#000000;stop-opacity:0.60593"></stop> <stop offset="1" style="stop-color:#000000;stop-opacity:0"></stop> </linearGradient> <path class="highlight" fill="url(#4d906698-cb1c-46e2-b453-3defc6a2adf9)" d="M97.05679,119.56447h-8.40919v-13.53354h8.40919V119.56447z" transform="translate(527.42053 -127.21775)" stroke-width="0" stroke-linejoin="miter" stroke-miterlimit="2" opacity="0.61"></path> </g>
               </g>
      <image xlink:href="https://app.brandmark.io/nounpreview/15822.png" id="icon" x="0" y="0" style="display: none;"></image>
    </g>
  </g>
</svg>